# xmcd CD database file
#
# Track frame offsets:
#	150
#	10660
#	25106
#	39909
#	52423
#	63689
#	75591
#	88003
#	99137
#	110982
#	145446
#	170192
#
# Disc length: 2612 seconds
#
# Revision: 0
# Processed by: cddbd v1.5.1PL0 Copyright (c) Steve Scherf et al.
# Submitted via: CDex 1.51
#
DISCID=a20a320c
DTITLE=Sonny Rollins - Jazz History 4
DYEAR=2005
DGENRE=Jazz
TTITLE0=Scoops
TTITLE1=With A Song In My Heart
TTITLE2=Newk's Fadaway
TTITLE3=Time On My Hands
TTITLE4=This Love Of Mine
TTITLE5=Shadrack
TTITLE6=On A Siow Boat To China
TTITLE7=Manbo Bounce
TTITLE8=I Know
TTITLE9=Dig
TTITLE10=It's Only A Paper Moon
TTITLE11=Denial
EXTD=YEAR: 2005
EXTT0=
EXTT1=
EXTT2=
EXTT3=
EXTT4=
EXTT5=
EXTT6=
EXTT7=
EXTT8=
EXTT9=
EXTT10=
EXTT11=
PLAYORDER=
